<svg id="svg" version="1.1" xmlns="http://www.w3.org/2000/svg" width="400" height="399.59141981613897"
     viewBox="0, 0, 400,399.59141981613897">
    <g id="alan_logo">
        <path id="path0"
              d="M348.802 99.949 L 340.812 107.967 342.656 110.827 C 375.313 161.476,377.398 228.487,347.973 281.689 C 342.354 291.850,333.656 304.358,327.910 310.544 L 326.888 311.645 310.989 295.758 L 295.091 279.872 292.760 282.537 C 255.516 325.117,191.641 336.758,142.386 309.942 L 140.053 308.672 131.930 316.793 C 125.279 323.443,123.854 324.963,124.071 325.180 C 124.604 325.713,131.984 329.790,135.955 331.746 C 187.302 357.028,249.615 349.677,293.156 313.202 L 295.097 311.576 311.032 327.492 L 326.966 343.408 330.439 340.177 C 396.032 279.154,410.149 180.438,364.313 103.304 C 362.195 99.740,357.114 91.931,356.913 91.931 C 356.846 91.931,353.196 95.539,348.802 99.949 M185.495 103.180 C 106.698 115.077,70.784 206.988,121.001 268.230 C 122.752 270.365,126.889 274.930,127.098 274.957 C 127.267 274.979,123.449 285.512,157.710 190.501 C 174.322 144.433,188.239 105.845,188.637 104.750 L 189.359 102.758 188.704 102.776 C 188.344 102.786,186.900 102.968,185.495 103.180 M212.666 103.029 C 212.666 103.112,272.531 272.808,273.248 274.755 C 273.561 275.606,282.291 265.033,286.064 259.235 C 322.246 203.623,296.294 129.059,233.299 107.636 C 226.683 105.386,212.666 102.257,212.666 103.029 M200.304 139.990 C 200.254 140.130,193.832 158.631,186.033 181.103 L 171.852 221.961 200.362 222.013 C 216.042 222.041,228.896 222.040,228.926 222.011 C 228.982 221.954,201.578 141.006,201.228 140.194 C 201.015 139.698,200.453 139.574,200.304 139.990 M164.052 244.586 C 156.958 264.424,147.923 291.233,148.250 291.474 C 149.028 292.048,154.655 294.999,157.099 296.115 C 183.477 308.167,213.361 308.719,239.837 297.646 C 244.202 295.820,250.665 292.582,252.177 291.463 C 252.551 291.186,252.244 290.229,244.516 267.552 L 236.466 243.929 200.377 243.926 L 164.289 243.922 164.052 244.586 "
              stroke="none" fill="#5b99a1" fill-rule="evenodd"></path>
        <path id="path1"
              d="M193.361 54.877 C 161.991 56.531,133.046 67.516,108.861 86.945 L 105.261 89.838 89.454 74.030 C 80.760 65.336,73.554 58.223,73.439 58.223 C 72.189 58.223,57.585 73.501,51.176 81.512 C -1.000 146.732,-4.708 240.511,42.227 307.830 L 43.567 309.752 51.625 301.694 L 59.682 293.637 58.061 291.098 C 18.421 229.018,23.809 149.112,71.475 92.171 L 73.411 89.858 89.318 105.756 L 105.225 121.655 105.983 120.825 C 106.400 120.369,108.015 118.597,109.572 116.889 C 146.513 76.345,206.834 65.556,256.247 90.655 L 260.503 92.816 268.677 84.642 L 276.851 76.468 274.227 74.931 C 249.735 60.578,220.892 53.425,193.361 54.877 M391.067 194.893 C 391.067 195.398,391.107 195.605,391.155 195.352 C 391.204 195.100,391.204 194.686,391.155 194.433 C 391.107 194.180,391.067 194.387,391.067 194.893 M54.188 195.812 C 54.191 196.261,54.232 196.421,54.281 196.167 C 54.330 195.913,54.328 195.545,54.277 195.350 C 54.226 195.155,54.186 195.363,54.188 195.812 M368.603 196.834 C 368.604 197.508,368.642 197.759,368.687 197.392 C 368.733 197.024,368.732 196.473,368.685 196.166 C 368.639 195.859,368.601 196.159,368.603 196.834 M76.670 197.753 C 76.670 198.371,76.708 198.624,76.755 198.315 C 76.802 198.006,76.802 197.500,76.755 197.191 C 76.708 196.882,76.670 197.135,76.670 197.753 M76.672 203.575 C 76.673 204.249,76.711 204.500,76.757 204.133 C 76.802 203.766,76.801 203.214,76.755 202.907 C 76.708 202.600,76.671 202.901,76.672 203.575 M368.603 204.597 C 368.604 205.271,368.642 205.522,368.687 205.155 C 368.733 204.787,368.732 204.236,368.685 203.929 C 368.639 203.622,368.601 203.922,368.603 204.597 M54.188 205.618 C 54.191 206.067,54.232 206.227,54.281 205.973 C 54.330 205.719,54.328 205.351,54.277 205.156 C 54.226 204.961,54.186 205.169,54.188 205.618 M391.063 206.435 C 391.065 206.885,391.107 207.044,391.156 206.790 C 391.205 206.536,391.203 206.168,391.152 205.973 C 391.100 205.778,391.060 205.986,391.063 206.435 M198.621 346.832 C 199.492 346.870,200.917 346.870,201.788 346.832 C 202.658 346.794,201.946 346.763,200.204 346.763 C 198.463 346.763,197.750 346.794,198.621 346.832 M192.492 369.089 C 192.689 369.140,193.011 369.140,193.207 369.089 C 193.404 369.037,193.243 368.995,192.850 368.995 C 192.457 368.995,192.296 369.037,192.492 369.089 M198.825 391.776 C 199.696 391.814,201.121 391.814,201.992 391.776 C 202.863 391.738,202.150 391.706,200.409 391.706 C 198.667 391.706,197.955 391.738,198.825 391.776 "
              stroke="none" fill="#acd3cc" fill-rule="evenodd"></path>
        <path id="path3"
              d="M189.990 10.032 C 155.016 11.986,120.314 23.721,92.814 42.892 L 91.144 44.057 99.249 52.151 L 107.354 60.244 110.010 58.544 C 172.045 18.821,255.302 24.878,310.013 73.095 L 311.010 73.973 295.095 89.890 C 286.342 98.643,279.222 105.841,279.273 105.885 C 324.282 144.069,336.765 207.257,309.407 258.415 L 308.048 260.957 316.178 269.089 C 320.650 273.562,324.375 277.222,324.455 277.222 C 324.889 277.222,330.026 267.824,332.565 262.388 C 356.396 211.346,348.522 150.320,312.592 107.590 L 311.072 105.783 326.972 89.882 L 342.871 73.982 342.069 73.000 C 339.079 69.344,328.487 59.164,322.181 53.885 C 285.744 23.385,237.489 7.377,189.990 10.032 M199.745 54.690 C 199.997 54.738,200.411 54.738,200.664 54.690 C 200.917 54.641,200.710 54.601,200.204 54.601 C 199.699 54.601,199.492 54.641,199.745 54.690 M193.007 54.898 C 193.374 54.943,193.925 54.942,194.232 54.896 C 194.539 54.849,194.239 54.812,193.565 54.813 C 192.891 54.814,192.640 54.852,193.007 54.898 M206.384 54.896 C 206.693 54.943,207.199 54.943,207.508 54.896 C 207.817 54.849,207.564 54.811,206.946 54.811 C 206.328 54.811,206.075 54.849,206.384 54.896 M189.533 55.099 C 189.787 55.147,190.154 55.146,190.350 55.094 C 190.545 55.043,190.337 55.003,189.888 55.006 C 189.438 55.008,189.278 55.050,189.533 55.099 M210.166 55.099 C 210.420 55.147,210.788 55.146,210.983 55.094 C 211.178 55.043,210.970 55.003,210.521 55.006 C 210.072 55.008,209.912 55.050,210.166 55.099 M186.977 55.299 C 187.173 55.351,187.495 55.351,187.692 55.299 C 187.888 55.248,187.727 55.206,187.334 55.206 C 186.941 55.206,186.780 55.248,186.977 55.299 M212.717 55.299 C 212.914 55.351,213.235 55.351,213.432 55.299 C 213.629 55.248,213.468 55.206,213.075 55.206 C 212.681 55.206,212.520 55.248,212.717 55.299 M69.856 61.236 L 69.152 62.002 69.918 61.298 C 70.340 60.911,70.684 60.566,70.684 60.532 C 70.684 60.376,70.511 60.523,69.856 61.236 M65.062 65.832 L 63.432 67.518 65.117 65.888 C 66.044 64.992,66.803 64.234,66.803 64.203 C 66.803 64.054,66.575 64.267,65.062 65.832 M60.358 70.735 L 59.551 71.604 60.419 70.796 C 61.226 70.045,61.381 69.867,61.226 69.867 C 61.193 69.867,60.802 70.258,60.358 70.735 M193.718 77.368 C 194.027 77.415,194.533 77.415,194.842 77.368 C 195.151 77.321,194.898 77.283,194.280 77.283 C 193.662 77.283,193.409 77.321,193.718 77.368 M205.771 77.368 C 206.080 77.415,206.586 77.415,206.895 77.368 C 207.204 77.321,206.951 77.283,206.333 77.283 C 205.715 77.283,205.462 77.321,205.771 77.368 M190.654 77.567 C 190.850 77.618,191.172 77.618,191.369 77.567 C 191.565 77.515,191.404 77.473,191.011 77.473 C 190.618 77.473,190.457 77.515,190.654 77.567 M209.244 77.567 C 209.441 77.618,209.763 77.618,209.959 77.567 C 210.156 77.515,209.995 77.473,209.602 77.473 C 209.208 77.473,209.047 77.515,209.244 77.567 M112.969 113.330 L 110.419 115.935 113.023 113.384 C 115.443 111.015,115.721 110.725,115.574 110.725 C 115.544 110.725,114.372 111.897,112.969 113.330 M271.604 130.950 C 272.043 131.399,272.448 131.767,272.504 131.767 C 272.560 131.767,272.247 131.399,271.808 130.950 C 271.369 130.501,270.964 130.133,270.908 130.133 C 270.852 130.133,271.165 130.501,271.604 130.950 M127.477 132.074 C 126.640 132.916,126.001 133.606,126.057 133.606 C 126.113 133.606,126.844 132.916,127.681 132.074 C 128.518 131.231,129.157 130.541,129.101 130.541 C 129.045 130.541,128.314 131.231,127.477 132.074 M273.851 133.197 C 274.290 133.647,274.695 134.014,274.751 134.014 C 274.807 134.014,274.494 133.647,274.055 133.197 C 273.616 132.748,273.211 132.380,273.155 132.380 C 273.099 132.380,273.412 132.748,273.851 133.197 M9.853 185.087 C 9.853 185.480,9.895 185.641,9.947 185.444 C 9.998 185.248,9.998 184.926,9.947 184.729 C 9.895 184.533,9.853 184.694,9.853 185.087 M9.653 187.845 C 9.655 188.294,9.697 188.454,9.746 188.200 C 9.795 187.946,9.793 187.578,9.742 187.383 C 9.691 187.187,9.651 187.395,9.653 187.845 M32.125 188.253 C 32.127 188.703,32.169 188.863,32.218 188.608 C 32.267 188.354,32.265 187.987,32.214 187.791 C 32.163 187.596,32.123 187.804,32.125 188.253 M9.459 191.216 C 9.459 191.834,9.497 192.086,9.544 191.777 C 9.590 191.468,9.590 190.963,9.544 190.654 C 9.497 190.345,9.459 190.598,9.459 191.216 M31.925 191.420 C 31.925 191.925,31.965 192.132,32.013 191.879 C 32.062 191.627,32.062 191.213,32.013 190.960 C 31.965 190.707,31.925 190.914,31.925 191.420 M368.382 192.441 C 368.382 192.835,368.424 192.995,368.476 192.799 C 368.527 192.602,368.527 192.280,368.476 192.084 C 368.424 191.887,368.382 192.048,368.382 192.441 M391.063 193.361 C 391.065 193.810,391.107 193.970,391.156 193.716 C 391.205 193.462,391.203 193.094,391.152 192.899 C 391.100 192.703,391.060 192.911,391.063 193.361 M54.184 194.484 C 54.184 194.877,54.226 195.038,54.278 194.842 C 54.329 194.645,54.329 194.323,54.278 194.127 C 54.226 193.930,54.184 194.091,54.184 194.484 M31.742 196.936 C 31.742 198.228,31.775 198.756,31.816 198.110 C 31.856 197.464,31.856 196.407,31.816 195.761 C 31.775 195.115,31.742 195.644,31.742 196.936 M9.283 200.919 C 9.283 204.178,9.312 205.482,9.346 203.818 C 9.380 202.154,9.380 199.488,9.346 197.894 C 9.311 196.299,9.283 197.661,9.283 200.919 M368.620 200.715 C 368.620 202.288,368.652 202.905,368.691 202.085 C 368.730 201.266,368.730 199.978,368.691 199.225 C 368.651 198.471,368.620 199.142,368.620 200.715 M76.682 200.613 C 76.682 201.680,76.717 202.117,76.759 201.583 C 76.801 201.050,76.801 200.176,76.759 199.642 C 76.717 199.109,76.682 199.545,76.682 200.613 M31.742 204.494 C 31.742 205.787,31.775 206.315,31.816 205.669 C 31.856 205.023,31.856 203.966,31.816 203.320 C 31.775 202.674,31.742 203.202,31.742 204.494 M302.625 203.882 C 302.625 204.837,302.660 205.227,302.703 204.750 C 302.746 204.272,302.746 203.491,302.703 203.013 C 302.660 202.536,302.625 202.926,302.625 203.882 M54.184 206.946 C 54.184 207.339,54.226 207.500,54.278 207.303 C 54.329 207.107,54.329 206.785,54.278 206.588 C 54.226 206.392,54.184 206.553,54.184 206.946 M391.063 207.865 C 391.065 208.315,391.107 208.474,391.156 208.220 C 391.205 207.966,391.203 207.598,391.152 207.403 C 391.100 207.208,391.060 207.416,391.063 207.865 M31.925 210.010 C 31.925 210.516,31.965 210.723,32.013 210.470 C 32.062 210.217,32.062 209.803,32.013 209.551 C 31.965 209.298,31.925 209.505,31.925 210.010 M9.459 210.419 C 9.459 211.037,9.497 211.290,9.544 210.981 C 9.590 210.672,9.590 210.166,9.544 209.857 C 9.497 209.548,9.459 209.801,9.459 210.419 M32.125 213.177 C 32.127 213.626,32.169 213.786,32.218 213.532 C 32.267 213.278,32.265 212.910,32.214 212.715 C 32.163 212.519,32.123 212.727,32.125 213.177 M9.653 213.994 C 9.655 214.443,9.697 214.603,9.746 214.349 C 9.795 214.095,9.793 213.727,9.742 213.532 C 9.691 213.337,9.651 213.544,9.653 213.994 M182.160 243.871 C 192.066 243.901,208.338 243.901,218.319 243.871 C 228.300 243.842,220.194 243.818,200.306 243.818 C 180.419 243.818,172.253 243.842,182.160 243.871 M287.331 288.100 L 285.087 290.398 287.385 288.155 C 288.649 286.921,289.683 285.886,289.683 285.856 C 289.683 285.709,289.415 285.965,287.331 288.100 M112.768 287.947 C 113.831 289.014,114.747 289.888,114.803 289.888 C 114.859 289.888,114.035 289.014,112.972 287.947 C 111.909 286.879,110.994 286.006,110.938 286.006 C 110.881 286.006,111.705 286.879,112.768 287.947 M310.930 327.579 C 319.637 336.287,326.807 343.412,326.863 343.412 C 326.919 343.412,319.841 336.287,311.134 327.579 C 302.426 318.871,295.256 311.747,295.200 311.747 C 295.144 311.747,302.222 318.871,310.930 327.579 M194.535 324.145 C 194.732 324.196,195.054 324.196,195.250 324.145 C 195.447 324.094,195.286 324.051,194.893 324.051 C 194.499 324.051,194.339 324.094,194.535 324.145 M204.954 324.145 C 205.151 324.196,205.472 324.196,205.669 324.145 C 205.866 324.094,205.705 324.051,205.312 324.051 C 204.918 324.051,204.757 324.094,204.954 324.145 M337.890 332.942 L 336.568 334.321 337.947 332.999 C 339.228 331.771,339.419 331.563,339.269 331.563 C 339.238 331.563,338.617 332.183,337.890 332.942 M65.271 335.853 C 66.728 337.314,67.967 338.509,68.023 338.509 C 68.079 338.509,66.932 337.314,65.475 335.853 C 64.018 334.392,62.779 333.197,62.723 333.197 C 62.667 333.197,63.813 334.392,65.271 335.853 M332.476 338.355 L 331.256 339.632 332.533 338.413 C 333.235 337.742,333.810 337.168,333.810 337.136 C 333.810 336.985,333.608 337.169,332.476 338.355 M328.996 341.624 L 328.396 342.288 329.060 341.688 C 329.679 341.129,329.818 340.960,329.660 340.960 C 329.625 340.960,329.326 341.259,328.996 341.624 M195.764 346.827 C 196.074 346.874,196.534 346.873,196.785 346.824 C 197.037 346.776,196.782 346.737,196.221 346.739 C 195.659 346.740,195.453 346.780,195.764 346.827 M203.731 346.827 C 204.042 346.874,204.501 346.873,204.753 346.824 C 205.004 346.776,204.750 346.737,204.188 346.739 C 203.626 346.740,203.421 346.780,203.731 346.827 M193.823 369.092 C 194.077 369.141,194.444 369.139,194.640 369.088 C 194.835 369.037,194.627 368.997,194.178 368.999 C 193.728 369.002,193.568 369.044,193.823 369.092 M206.080 369.092 C 206.334 369.141,206.702 369.139,206.897 369.088 C 207.092 369.037,206.885 368.997,206.435 368.999 C 205.986 369.002,205.826 369.044,206.080 369.092 M195.455 391.772 C 195.820 391.817,196.417 391.817,196.782 391.772 C 197.148 391.727,196.849 391.689,196.118 391.689 C 195.388 391.689,195.089 391.727,195.455 391.772 M204.038 391.772 C 204.406 391.818,204.957 391.817,205.264 391.770 C 205.571 391.723,205.271 391.686,204.597 391.687 C 203.922 391.689,203.671 391.727,204.038 391.772 "
              stroke="none" fill="#d4e4dc" fill-rule="evenodd"></path>
        <path id="path4"
              d="M348.722 99.847 L 340.654 107.967 348.774 99.899 C 353.241 95.461,356.895 91.807,356.895 91.778 C 356.895 91.634,356.221 92.299,348.722 99.847 M74.155 127.120 C 43.358 179.140,48.680 246.296,87.318 293.236 L 89.318 295.666 73.427 311.557 L 57.536 327.449 58.536 328.638 C 61.993 332.749,73.242 343.441,79.571 348.630 C 137.967 396.513,220.021 405.238,287.130 370.700 C 294.955 366.673,308.735 358.306,309.025 357.405 C 309.062 357.292,305.505 353.615,301.121 349.233 L 293.151 341.267 292.592 341.597 C 292.284 341.779,290.773 342.722,289.233 343.694 C 227.535 382.616,144.222 376.177,90.296 328.319 L 89.377 327.503 105.276 311.590 L 121.176 295.677 118.759 293.561 C 75.792 255.927,64.211 193.112,91.002 143.015 L 92.361 140.473 84.230 132.341 C 79.759 127.868,76.050 124.208,75.989 124.208 C 75.928 124.208,75.103 125.518,74.155 127.120 M390.854 191.011 C 390.854 191.404,390.896 191.565,390.948 191.369 C 390.999 191.172,390.999 190.850,390.948 190.654 C 390.896 190.457,390.854 190.618,390.854 191.011 M368.591 194.995 C 368.593 195.444,368.635 195.604,368.684 195.350 C 368.733 195.096,368.731 194.728,368.680 194.533 C 368.629 194.338,368.589 194.545,368.591 194.995 M391.078 197.038 C 391.079 197.824,391.116 198.121,391.160 197.697 C 391.205 197.273,391.204 196.630,391.159 196.267 C 391.114 195.904,391.077 196.251,391.078 197.038 M97.902 199.183 C 97.902 199.576,97.944 199.737,97.996 199.540 C 98.047 199.344,98.047 199.022,97.996 198.825 C 97.944 198.629,97.902 198.790,97.902 199.183 M391.080 204.290 C 391.080 205.133,391.116 205.478,391.160 205.056 C 391.204 204.635,391.204 203.945,391.160 203.524 C 391.116 203.103,391.080 203.447,391.080 204.290 M368.591 206.435 C 368.593 206.885,368.635 207.044,368.684 206.790 C 368.733 206.536,368.731 206.168,368.680 205.973 C 368.629 205.778,368.589 205.986,368.591 206.435 M186.057 222.217 C 193.950 222.246,206.867 222.246,214.760 222.217 C 222.653 222.187,216.195 222.163,200.409 222.163 C 184.622 222.163,178.164 222.187,186.057 222.217 M125.638 273.608 C 125.638 273.644,125.937 273.942,126.302 274.272 L 126.966 274.872 126.366 274.208 C 125.807 273.589,125.638 273.451,125.638 273.608 M310.930 295.710 C 319.637 304.418,326.807 311.542,326.863 311.542 C 326.919 311.542,319.841 304.418,311.134 295.710 C 302.426 287.002,295.256 279.877,295.200 279.877 C 295.144 279.877,302.222 287.002,310.930 295.710 M290.490 284.934 L 289.785 285.700 290.552 284.996 C 290.973 284.608,291.318 284.264,291.318 284.230 C 291.318 284.074,291.145 284.221,290.490 284.934 M284.157 291.267 L 283.453 292.033 284.219 291.329 C 284.640 290.941,284.985 290.597,284.985 290.563 C 284.985 290.407,284.812 290.554,284.157 291.267 M195.557 305.555 C 195.753 305.606,196.075 305.606,196.272 305.555 C 196.468 305.503,196.307 305.461,195.914 305.461 C 195.521 305.461,195.360 305.503,195.557 305.555 M131.692 316.827 C 125.834 322.686,123.627 325.018,123.827 325.134 C 123.982 325.224,124.035 325.217,123.945 325.118 C 123.856 325.021,127.441 321.283,131.911 316.812 C 136.382 312.341,139.993 308.682,139.937 308.682 C 139.881 308.682,136.170 312.348,131.692 316.827 M198.630 324.360 C 199.506 324.399,200.885 324.399,201.695 324.360 C 202.504 324.321,201.788 324.290,200.102 324.290 C 198.417 324.290,197.754 324.322,198.630 324.360 M339.723 330.899 L 339.019 331.665 339.785 330.961 C 340.207 330.574,340.552 330.229,340.552 330.195 C 340.552 330.039,340.379 330.186,339.723 330.899 M335.234 335.598 L 333.912 336.977 335.291 335.655 C 336.572 334.427,336.763 334.219,336.613 334.219 C 336.582 334.219,335.961 334.839,335.234 335.598 M330.326 340.296 L 329.622 341.062 330.388 340.358 C 330.809 339.971,331.154 339.626,331.154 339.592 C 331.154 339.436,330.981 339.583,330.326 340.296 "
              stroke="none" fill="#94c4c8" fill-rule="evenodd"></path>
    </g>
</svg>
