<?xml version="1.0" encoding="UTF-8"?>
<svg id="svg8" width="600" height="600" version="1.1" viewBox="19 19 441.67 441.67" xml:space="preserve" xmlns="http://www.w3.org/2000/svg" xmlns:cc="http://creativecommons.org/ns#" xmlns:dc="http://purl.org/dc/elements/1.1/" xmlns:rdf="http://www.w3.org/1999/02/22-rdf-syntax-ns#"><title id="title2">Rust programming language logo</title><metadata id="metadata4"><rdf:RDF><cc:Work rdf:about=""><dc:format>image/svg+xml</dc:format><dc:type rdf:resource="http://purl.org/dc/dcmitype/StillImage"/><dc:title>Rust programming language logo</dc:title></cc:Work></rdf:RDF></metadata><path id="path6" d="m457.52 234.43-18.529-11.48c-0.15617-1.8063-0.33345-3.6085-0.5276-5.4021l15.955-14.856c1.6208-1.5109 2.3468-3.7477 1.9078-5.9086-0.4263-2.1735-1.95-3.963-4.0224-4.7269l-20.386-7.5968c-0.51072-1.7641-1.0468-3.5156-1.5955-5.2755l12.705-17.641c1.2958-1.7937 1.5617-4.1276 0.71753-6.1618-0.84415-2.0385-2.6886-3.4987-4.8539-3.8575l-21.484-3.4945c-0.83572-1.6291-1.7052-3.2328-2.5831-4.8113l9.0325-19.836c0.92435-2.0174 0.73441-4.347-0.49805-6.204-1.2282-1.8401-3.3091-2.9163-5.5292-2.8319l-21.821 0.75968c-1.127-1.4096-2.275-2.8066-3.4442-4.1782l5.0227-21.229c0.5065-2.1566-0.13084-4.4314-1.701-5.993-1.5575-1.5616-3.8198-2.2073-5.9935-1.7008l-21.231 5.0223c-1.376-1.1648-2.773-2.317-4.187-3.4439l0.76396-21.82c0.0844-2.2073-0.99188-4.3048-2.8321-5.5287-1.8445-1.2324-4.1786-1.4181-6.2046-0.50223l-19.795 9.0317c-1.5997-0.87785-3.2036-1.7472-4.8117-2.5871l-3.5032-21.482c-0.35454-2.1777-1.8149-4.0263-3.8578-4.8535-2.0386-0.8483-4.3896-0.57397-6.1623 0.71747l-17.643 12.703c-1.739-0.55288-3.4864-1.0846-5.2338-1.5911l-7.5974-20.385c-0.7724-2.0764-2.562-3.6-4.7273-4.0305-2.1695-0.42626-4.3896 0.29543-5.9091 1.9076l-14.857 15.953c-1.7938-0.19836-3.6003-0.37983-5.4026-0.52755l-11.481-18.57c-1.1607-1.8781-3.2162-3.0218-5.4448-3.0218s-4.263 1.1437-5.4026 3.0218l-11.481 18.57c-1.8065 0.14772-3.613 0.32919-5.4026 0.52755l-14.857-15.953c-1.5068-1.6122-3.7438-2.3339-5.9091-1.9076-2.1737 0.4347-3.9633 1.954-4.7273 4.0305l-7.5974 20.385c-1.7643 0.50645-3.5117 1.0424-5.2338 1.5911l-17.643-12.703c-1.7938-1.2957-4.1321-1.57-6.1623-0.71747-2.0386 0.84409-3.5032 2.6926-3.8578 4.8535l-3.5032 21.482c-1.6208 0.83986-3.2247 1.705-4.8117 2.5871l-19.795-9.0317c-2.0133-0.92005-4.3474-0.73013-6.2045 0.50223-1.8403 1.2239-2.9166 3.3215-2.8322 5.5287l0.75974 21.82c-1.4097 1.1269-2.8068 2.279-4.187 3.4439l-21.231-5.0223c-2.1568-0.50223-4.4318 0.13927-5.9935 1.7008-1.5701 1.5658-2.2075 3.8237-1.701 5.993l4.9805 21.229c-1.1607 1.3758-2.3088 2.7686-3.4357 4.1782l-21.821-0.75968c-2.199-0.0633-4.3052 0.9918-5.5292 2.8319-1.2325 1.8317-1.4182 4.1782-0.50227 6.204l9.0325 19.836c-0.87792 1.5911-1.7474 3.1948-2.5873 4.8113l-21.484 3.4945c-2.1821 0.35451-4.0224 1.8148-4.8539 3.8575-0.84415 2.0469-0.5698 4.3892 0.71753 6.1618l12.705 17.641c-0.55292 1.743-1.089 3.4945-1.5954 5.2755l-20.386 7.5968c-2.0682 0.77233-3.5919 2.5618-4.0224 4.7269-0.43052 2.1693 0.29123 4.3892 1.9078 5.9086l15.955 14.856c-0.19838 1.7937-0.37565 3.6-0.5276 5.4021l-18.529 11.48c-1.8782 1.1606-3.0221 3.2117-3.0221 5.4443s1.1438 4.2626 3.0221 5.4021l18.529 11.48c0.15195 1.8063 0.32922 3.6085 0.5276 5.4021l-15.955 14.856c-1.6166 1.5067-2.3383 3.7435-1.9078 5.9086 0.43052 2.1735 1.9542 3.9588 4.0224 4.7269l20.386 7.5968c0.50649 1.7641 1.0425 3.5156 1.5954 5.2755l-12.705 17.641c-1.2916 1.7979-1.5659 4.1318-0.71753 6.1618 0.84838 2.0469 2.6929 3.5072 4.8961 3.8575l21.484 3.4945c0.83993 1.6291 1.701 3.2328 2.5873 4.8113l-9.0325 19.794c-0.92013 2.0131-0.7302 4.347 0.50227 6.204 1.2325 1.8443 3.3302 2.9205 5.5292 2.8319l21.779-0.7639c1.1354 1.4181 2.2792 2.8066 3.4442 4.1866l-4.9805 21.229c-0.50649 2.1524 0.13084 4.3892 1.701 5.9508 1.5575 1.5742 3.824 2.2031 5.9935 1.6966l21.231-4.9801c1.3802 1.1733 2.7773 2.3128 4.187 3.4354l-0.75974 21.82c-0.0844 2.2073 0.99189 4.3048 2.8322 5.5288 1.8318 1.2281 4.1786 1.4138 6.2045 0.49379l19.795-9.0317c1.5955 0.88628 3.1994 1.7472 4.8117 2.5871l3.5032 21.482c0.35455 2.1862 1.8149 4.0347 3.8578 4.8957 2.0386 0.8483 4.3896 0.57398 6.1623-0.71325l17.643-12.703c1.7432 0.55288 3.4948 1.0931 5.276 1.5995l7.5974 20.385c0.7724 2.068 2.562 3.6 4.7273 4.0221 2.1695 0.43892 4.3896-0.28699 5.9091-1.9076l14.857-15.953c1.7938 0.2068 3.6003 0.37984 5.4026 0.54021l11.481 18.528c1.1565 1.8696 3.212 3.0218 5.4026 3.0218 2.1906 0 4.263-1.148 5.4448-3.0218l11.481-18.528c1.8065-0.16037 3.6088-0.33341 5.4026-0.54021l14.857 15.953c1.5068 1.6206 3.7438 2.3466 5.9091 1.9076 2.1737-0.42627 3.9633-1.9541 4.7273-4.0221l7.5974-20.385c1.7643-0.50645 3.5159-1.0467 5.276-1.5995l17.643 12.703c1.7938 1.2872 4.1321 1.5616 6.1623 0.71325 2.0429-0.83986 3.5032-2.6926 3.8578-4.8957l3.5032-21.482c1.6208-0.83986 3.2247-1.7135 4.8117-2.5871l19.795 9.0317c2.0133 0.92005 4.3474 0.73435 6.2046-0.49379 1.8403-1.2324 2.9123-3.3215 2.8321-5.5288l-0.75974-21.82c1.4097-1.1268 2.8068-2.2622 4.1828-3.4354l21.231 4.9801c2.1568 0.50645 4.4318-0.12239 5.9935-1.6966 1.5701-1.5658 2.2075-3.8153 1.701-5.9508l-4.9805-21.229c1.1649-1.3801 2.313-2.7686 3.4357-4.1866l21.821 0.7639c2.199 0.0886 4.3052-0.98758 5.5292-2.8319 1.2325-1.8401 1.4224-4.1824 0.49805-6.204l-9.0325-19.794c0.88214-1.5995 1.7474-3.2033 2.5831-4.8113l21.484-3.4945c2.1864-0.3503 4.0266-1.8106 4.8539-3.8575 0.84415-2.0385 0.57824-4.3892-0.71753-6.1618l-12.705-17.641c0.5487-1.743 1.0847-3.4945 1.5954-5.2755l20.386-7.5968c2.0724-0.77656 3.6003-2.5618 4.0224-4.7269 0.43897-2.1693-0.28701-4.3892-1.9078-5.9086l-15.955-14.856c0.19416-1.7937 0.37143-3.6 0.5276-5.4021l18.529-11.48c1.8782-1.1564 3.0221-3.2117 3.0221-5.4021 0-2.1904-1.1396-4.2626-3.0178-5.4443zm-124.09 154.05c-7.0909-1.5278-11.565-8.5252-10.045-15.616 1.5153-7.0903 8.4838-11.606 15.575-10.087 7.0909 1.5151 11.607 8.5252 10.088 15.616s-8.4838 11.606-15.575 10.087zm-6.289-42.626c-6.4578-1.3843-12.831 2.7264-14.182 9.2005l-6.5844 30.725c-20.302 9.2005-43.052 14.349-66.688 14.349-24.312 0-47.273-5.3599-67.955-14.982l-6.5844-30.725c-1.3844-6.4572-7.724-10.593-14.182-9.2005l-27.14 5.8242c-5.0227-5.1911-9.7078-10.72-14.013-16.544h132.11c1.4942 0 2.4903-0.27011 2.4903-1.6291v-46.847c0-1.359-0.99611-1.6291-2.4903-1.6291h-38.62v-29.585h41.744c3.8114 0 20.386 1.0889 25.662 22.284 1.6588 6.4994 5.3182 27.686 7.8084 34.481 2.4818 7.5968 12.578 22.79 23.341 22.79h65.844c0.74708 0 1.5448-0.0844 2.3847-0.23635-4.5584 6.204-9.5812 12.07-14.942 17.557l-27.773-5.9508zm-182.76 41.993c-7.0909 1.5278-14.055-2.988-15.575-10.087-1.5153-7.0903 2.9883-14.096 10.088-15.616 7.0909-1.5151 14.055 3.0007 15.575 10.087 1.5153 7.0903-2.9925 14.096-10.088 15.616zm-50.227-203c2.9377 6.6261-0.05065 14.392-6.6688 17.346-6.6266 2.9416-14.351-0.0506-17.305-6.6683-2.9545-6.6176 0.05065-14.392 6.6688-17.346 6.6266-2.9374 14.351 0.0506 17.305 6.6683zm-15.406 36.464 28.279-12.577c6.0357-2.68 8.7792-9.7492 6.0779-15.784l-5.8247-13.168h22.877v102.98h-46.006c-4.0055-14.096-6.1623-28.952-6.1623-44.314 0-5.8664 0.31656-11.648 0.92435-17.346zm124.09-10.002v-30.387h54.448c2.8153 0 19.88 3.254 19.88 15.995 0 10.593-13.084 14.392-23.847 14.392h-50.649zm197.95 27.348c0 4.0347-0.14772 8.0188-0.44318 11.986h-16.588c-1.6588 0-2.3256 1.0889-2.3256 2.7137v7.5968c0 17.895-10.088 21.82-18.951 22.79-8.4416 0.94959-17.769-3.5283-18.909-8.6941-4.9805-27.981-13.253-33.932-26.338-44.314 16.25-10.298 33.133-25.534 33.133-46.003 0-21.988-15.068-35.831-25.325-42.626-14.435-9.4959-30.39-11.395-34.695-11.395h-171.36c23.256-25.913 54.87-44.314 90.325-51.067l20.218 21.186c4.5584 4.7691 12.114 4.9801 16.925 0.38827l22.623-21.609c47.273 8.8207 87.37 38.279 110.58 78.922l-15.49 34.945c-2.6718 6.0352 0.0549 13.125 6.0779 15.784l29.799 13.252c0.51493 5.2755 0.78506 10.635 0.78506 16.038zm-171.36-176.84c5.2338-5.0223 13.549-4.8113 18.529 0.42626 4.9805 5.2333 4.8117 13.548-0.43474 18.57-5.2338 5.0223-13.549 4.8113-18.529-0.43048-4.9805-5.2333-4.8117-13.548 0.43474-18.57zm153.64 123.66c2.9334-6.6261 10.679-9.6226 17.305-6.6683 6.6266 2.9374 9.6234 10.72 6.6688 17.346-2.9334 6.6261-10.679 9.6226-17.305 6.6683-6.6266-2.9374-9.6234-10.72-6.6688-17.346z" stroke-width="4.2206"/></svg>
