<?xml version="1.0" encoding="UTF-8"?>
<svg width="170px" height="138px" viewBox="0 0 170 138" version="1.1" xmlns="http://www.w3.org/2000/svg" xmlns:xlink="http://www.w3.org/1999/xlink" preserveAspectRatio="xMidYMid">
    <g>
				<path d="M108.440498,102.556917 L127.366503,113.338653 L85.7176999,137.670017 L45.0833076,114.483488 L62.9804097,102.991664 L85.6017672,115.903662 L108.440498,102.556917 Z M30.7656258,31.2728312 L30.8380837,53.0681685 L18.9115128,60.0241273 L18.9984623,78.3269937 L34.9102179,87.3987232 L107.484054,45.0543244 L107.556512,66.8496618 L35.011659,109.165077 L0.20288213,89.3116119 L0,49.2423912 L30.7656258,31.2728312 Z M139.858245,30.794609 L170.855737,48.4743375 L170.870228,88.4276255 L136.264333,108.643381 L94.1083251,84.6018482 L112.860431,73.61723 L136.148401,86.8770263 L151.958715,77.6458894 L151.857274,59.343023 L139.930703,52.5319801 L139.858245,30.794609 Z M85.1380366,0 L133.061694,27.3311212 L133.221101,75.4286776 L114.32408,64.6469415 L114.237131,38.3012478 L85.2684609,21.7808458 L56.4302153,38.6200626 L56.5026732,64.9512647 L50.0829029,68.7045841 L37.6926014,76.6459703 L37.5476856,27.823835 L85.1380366,0 Z M63.2267666,45.344156 L76.8488525,53.0971517 L63.2847329,61.0095548 L63.2267666,45.344156 Z" fill="#3F5DFF"></path>
		</g>
</svg>
